<?xml version="1.0" encoding="UTF-8" standalone="no"?>
<svg
   xmlns:dc="http://purl.org/dc/elements/1.1/"
   xmlns:cc="http://creativecommons.org/ns#"
   xmlns:rdf="http://www.w3.org/1999/02/22-rdf-syntax-ns#"
   xmlns:svg="http://www.w3.org/2000/svg"
   xmlns="http://www.w3.org/2000/svg"
   viewBox="0 0 1587.4 672.76001"
   height="672.76001"
   width="1587.4"
   xml:space="preserve"
   id="svg2"
   version="1.1"><metadata
     id="metadata8"><rdf:RDF><cc:Work
         rdf:about=""><dc:format>image/svg+xml</dc:format><dc:type
           rdf:resource="http://purl.org/dc/dcmitype/StillImage" /></cc:Work></rdf:RDF></metadata><defs
     id="defs6"><linearGradient
       id="linearGradient64"
       spreadMethod="pad"
       gradientTransform="matrix(11905.5,0,0,-11905.5,0,2522.83)"
       gradientUnits="userSpaceOnUse"
       y2="0"
       x2="1"
       y1="0"
       x1="0"><stop
         id="stop14"
         offset="0"
         style="stop-opacity:1;stop-color:#8d1b33" /><stop
         id="stop16"
         offset="0.0360939"
         style="stop-opacity:1;stop-color:#8e181d" /><stop
         id="stop18"
         offset="0.0846491"
         style="stop-opacity:1;stop-color:#ae1f3d" /><stop
         id="stop20"
         offset="0.08579978"
         style="stop-opacity:1;stop-color:#ae1f3d" /><stop
         id="stop22"
         offset="0.123651"
         style="stop-opacity:1;stop-color:#ae1c22" /><stop
         id="stop24"
         offset="0.15844636"
         style="stop-opacity:1;stop-color:#db1f26" /><stop
         id="stop26"
         offset="0.169679"
         style="stop-opacity:1;stop-color:#db1f26" /><stop
         id="stop28"
         offset="0.17466005"
         style="stop-opacity:1;stop-color:#db1f26" /><stop
         id="stop30"
         offset="0.214164"
         style="stop-opacity:1;stop-color:#7d2c88" /><stop
         id="stop32"
         offset="0.243585"
         style="stop-opacity:1;stop-color:#7b2d8a" /><stop
         id="stop34"
         offset="0.263829"
         style="stop-opacity:1;stop-color:#64339a" /><stop
         id="stop36"
         offset="0.291113"
         style="stop-opacity:1;stop-color:#36449d" /><stop
         id="stop38"
         offset="0.324153"
         style="stop-opacity:1;stop-color:#1d3c85" /><stop
         id="stop40"
         offset="0.32958611"
         style="stop-opacity:1;stop-color:#1d3c85" /><stop
         id="stop42"
         offset="0.418102"
         style="stop-opacity:1;stop-color:#30327c" /><stop
         id="stop44"
         offset="0.4233528"
         style="stop-opacity:1;stop-color:#30327c" /><stop
         id="stop46"
         offset="0.494023"
         style="stop-opacity:1;stop-color:#2a3e96" /><stop
         id="stop48"
         offset="0.558085"
         style="stop-opacity:1;stop-color:#3263ab" /><stop
         id="stop50"
         offset="0.63820941"
         style="stop-opacity:1;stop-color:#5fb4bd" /><stop
         id="stop52"
         offset="0.655594"
         style="stop-opacity:1;stop-color:#5fb4bd" /><stop
         id="stop54"
         offset="0.68957257"
         style="stop-opacity:1;stop-color:#5fb4bd" /><stop
         id="stop56"
         offset="0.742645"
         style="stop-opacity:1;stop-color:#2492b4" /><stop
         id="stop58"
         offset="0.74903608"
         style="stop-opacity:1;stop-color:#2492b4" /><stop
         id="stop60"
         offset="0.887491"
         style="stop-opacity:1;stop-color:#26b255" /><stop
         id="stop62"
         offset="1"
         style="stop-opacity:1;stop-color:#209d84" /></linearGradient><clipPath
       id="clipPath74"
       clipPathUnits="userSpaceOnUse"><path
         id="path72"
         d="M 1925.87,0 H 3393.76 L 2882.68,2522.8 Z" /></clipPath><linearGradient
       id="linearGradient90"
       spreadMethod="pad"
       gradientTransform="matrix(-1467.9,1e-7,1e-7,1467.9,3393.76,1261.4)"
       gradientUnits="userSpaceOnUse"
       y2="0"
       x2="1"
       y1="0"
       x1="0"><stop
         id="stop76"
         offset="0"
         style="stop-opacity:1;stop-color:#7d2c88" /><stop
         id="stop78"
         offset="0.29979262"
         style="stop-opacity:1;stop-color:#7d2c88" /><stop
         id="stop80"
         offset="0.335381"
         style="stop-opacity:1;stop-color:#7d2c88" /><stop
         id="stop82"
         offset="0.92947509"
         style="stop-opacity:1;stop-color:#8a2248" /><stop
         id="stop84"
         offset="1"
         style="stop-opacity:1;stop-color:#8a2248" /><stop
         id="stop86"
         offset="1"
         style="stop-opacity:1;stop-color:#8a2248" /><stop
         id="stop88"
         offset="1"
         style="stop-opacity:1;stop-color:#8a2248" /></linearGradient><clipPath
       id="clipPath100"
       clipPathUnits="userSpaceOnUse"><path
         id="path98"
         d="M 5895.05,5045.66 H 5151.49 L 4747.74,2522.8 5115.18,0 h 779.87 z" /></clipPath><linearGradient
       id="linearGradient108"
       spreadMethod="pad"
       gradientTransform="matrix(-533.269,-3334.6,-3334.6,533.269,5925.79,5040.74)"
       gradientUnits="userSpaceOnUse"
       y2="0"
       x2="1"
       y1="0"
       x1="0"><stop
         id="stop102"
         offset="0"
         style="stop-opacity:1;stop-color:#30327c" /><stop
         id="stop104"
         offset="0.242729"
         style="stop-opacity:1;stop-color:#30327c" /><stop
         id="stop106"
         offset="1"
         style="stop-opacity:1;stop-color:#2350a4" /></linearGradient><clipPath
       id="clipPath118"
       clipPathUnits="userSpaceOnUse"><path
         id="path116"
         d="m 3448.2,5045.66 h -0.54 L 2882.68,2522.8 3393.76,0 4179.82,2522.8 Z" /></clipPath><linearGradient
       id="linearGradient124"
       spreadMethod="pad"
       gradientTransform="matrix(1297.14,0,0,-1297.14,2882.68,2522.83)"
       gradientUnits="userSpaceOnUse"
       y2="0"
       x2="1"
       y1="0"
       x1="0"><stop
         id="stop120"
         offset="0"
         style="stop-opacity:1;stop-color:#65339a" /><stop
         id="stop122"
         offset="1"
         style="stop-opacity:1;stop-color:#37449c" /></linearGradient><clipPath
       id="clipPath134"
       clipPathUnits="userSpaceOnUse"><path
         id="path132"
         d="M 5151.49,5045.66 H 3448.2 L 4179.82,2522.8 3393.76,0 h 1721.42 l -367.44,2522.8 z" /></clipPath><linearGradient
       id="linearGradient140"
       spreadMethod="pad"
       gradientTransform="matrix(-1757.73,2e-7,2e-7,1757.73,5151.49,2522.83)"
       gradientUnits="userSpaceOnUse"
       y2="0"
       x2="1"
       y1="0"
       x1="0"><stop
         id="stop136"
         offset="0"
         style="stop-opacity:1;stop-color:#1d3c85" /><stop
         id="stop138"
         offset="1"
         style="stop-opacity:1;stop-color:#513690" /></linearGradient><clipPath
       id="clipPath152"
       clipPathUnits="userSpaceOnUse"><path
         id="path150"
         d="M 3447.66,5045.66 H 1911.23 L 2882.68,2522.8 Z" /></clipPath><linearGradient
       id="linearGradient168"
       spreadMethod="pad"
       gradientTransform="matrix(-1587.95,1e-7,1e-7,1587.95,3459.41,3784.23)"
       gradientUnits="userSpaceOnUse"
       y2="0"
       x2="1"
       y1="0"
       x1="0"><stop
         id="stop154"
         offset="0"
         style="stop-opacity:1;stop-color:#7d2c88" /><stop
         id="stop156"
         offset="0.29979262"
         style="stop-opacity:1;stop-color:#7d2c88" /><stop
         id="stop158"
         offset="0.335381"
         style="stop-opacity:1;stop-color:#7d2c88" /><stop
         id="stop160"
         offset="0.92947509"
         style="stop-opacity:1;stop-color:#8a2248" /><stop
         id="stop162"
         offset="1"
         style="stop-opacity:1;stop-color:#8a2248" /><stop
         id="stop164"
         offset="1"
         style="stop-opacity:1;stop-color:#8a2248" /><stop
         id="stop166"
         offset="1"
         style="stop-opacity:1;stop-color:#8a2248" /></linearGradient><clipPath
       id="clipPath188"
       clipPathUnits="userSpaceOnUse"><path
         id="path186"
         d="m 10563.4,771.641 c 28.8,417.819 165.2,899.539 309.4,1409.599 23.1,81.56 46.6,164.47 69.9,248.59 -23.4,90.37 -46.8,179.54 -69.9,267.26 -144.3,548.25 -280.6,1066 -309.4,1515.11 -22.3,348.65 23.3,609.46 147,833.46 H 9954.55 C 9830.84,4744.81 9785.18,4566.8 9807.56,4218.15 9836.33,3769.08 9972.68,3251.3 10116.9,2703.08 10330.7,1890.99 10578,954.789 10498.6,0 h 212.2 c -124,208.512 -169.7,446.93 -147.4,771.641 z" /></clipPath><linearGradient
       id="linearGradient194"
       spreadMethod="pad"
       gradientTransform="matrix(2e-7,-5045.66,-5045.66,-2e-7,10372.4,5045.66)"
       gradientUnits="userSpaceOnUse"
       y2="0"
       x2="1"
       y1="0"
       x1="0"><stop
         id="stop190"
         offset="0"
         style="stop-opacity:1;stop-color:#80c551" /><stop
         id="stop192"
         offset="1"
         style="stop-opacity:1;stop-color:#74c371" /></linearGradient><clipPath
       id="clipPath204"
       clipPathUnits="userSpaceOnUse"><path
         id="path202"
         d="m 10116.9,2703.08 c -144.22,548.22 -280.57,1066 -309.34,1515.07 -22.38,348.65 23.28,526.66 146.99,827.51 H 9370.9 C 9464.16,4157.55 9308.69,3288.41 9146.91,2299.63 9052.48,1722.7 8954.8,1126.19 8929.51,642.652 8911.29,294.941 8935.53,103.18 8958.91,0 h 1539.69 c 79.4,954.789 -167.9,1890.99 -381.7,2703.08 z" /></clipPath><linearGradient
       id="linearGradient210"
       spreadMethod="pad"
       gradientTransform="matrix(1312.67,-4968.22,-4968.22,-1312.67,8804.32,4992.07)"
       gradientUnits="userSpaceOnUse"
       y2="0"
       x2="1"
       y1="0"
       x1="0"><stop
         id="stop206"
         offset="0"
         style="stop-opacity:1;stop-color:#26b256" /><stop
         id="stop208"
         offset="1"
         style="stop-opacity:1;stop-color:#219e84" /></linearGradient><clipPath
       id="clipPath222"
       clipPathUnits="userSpaceOnUse"><path
         id="path220"
         d="m 11204.9,5045.66 c 175.9,-911.13 -40.3,-1818.08 -262.2,-2615.83 C 11136.1,1683.68 11325.1,851.711 11254.2,0 h 651.3 v 5045.66 z" /></clipPath><linearGradient
       id="linearGradient228"
       spreadMethod="pad"
       gradientTransform="matrix(2e-7,-5045.66,-5045.66,-2e-7,11424.1,5045.66)"
       gradientUnits="userSpaceOnUse"
       y2="0"
       x2="1"
       y1="0"
       x1="0"><stop
         id="stop224"
         offset="0"
         style="stop-opacity:1;stop-color:#5ea45f" /><stop
         id="stop226"
         offset="1"
         style="stop-opacity:1;stop-color:#319141" /></linearGradient><clipPath
       id="clipPath238"
       clipPathUnits="userSpaceOnUse"><path
         id="path236"
         d="m 8929.51,642.652 c 25.29,483.538 122.97,1080.048 217.4,1656.978 161.78,988.78 317.25,1857.92 223.99,2746.03 H 8204.84 c -23.32,-187.89 -47.44,-315.86 -29.21,-688.94 25.31,-519.69 122.9,-1160.81 217.32,-1780.87 C 8531.97,1662.94 8666.25,783.672 8642.28,0 h 316.63 c -23.38,103.18 -47.62,294.941 -29.4,642.652 z" /></clipPath><linearGradient
       id="linearGradient244"
       spreadMethod="pad"
       gradientTransform="matrix(2e-7,-5045.66,-5045.66,-2e-7,8784.11,5045.66)"
       gradientUnits="userSpaceOnUse"
       y2="0"
       x2="1"
       y1="0"
       x1="0"><stop
         id="stop240"
         offset="0"
         style="stop-opacity:1;stop-color:#40c1e0" /><stop
         id="stop242"
         offset="1"
         style="stop-opacity:1;stop-color:#2492b3" /></linearGradient><clipPath
       id="clipPath256"
       clipPathUnits="userSpaceOnUse"><path
         id="path254"
         d="m 10563.4,4212.2 c 28.8,-449.11 165.1,-966.86 309.4,-1515.11 23.1,-87.72 46.5,-176.89 69.9,-267.26 221.9,797.75 438.1,1704.7 262.2,2615.83 h -494.5 c -123.7,-224 -169.3,-484.81 -147,-833.46 z" /></clipPath><linearGradient
       id="linearGradient262"
       spreadMethod="pad"
       gradientTransform="matrix(751.905,1341.32,1341.32,-751.905,10407.1,2989.48)"
       gradientUnits="userSpaceOnUse"
       y2="0"
       x2="1"
       y1="0"
       x1="0"><stop
         id="stop258"
         offset="0"
         style="stop-opacity:1;stop-color:#5abb6d" /><stop
         id="stop260"
         offset="1"
         style="stop-opacity:1;stop-color:#74c253" /></linearGradient><clipPath
       id="clipPath272"
       clipPathUnits="userSpaceOnUse"><path
         id="path270"
         d="m 8392.95,2575.85 c -94.42,620.06 -192.01,1261.18 -217.32,1780.87 -18.23,373.08 5.89,501.05 29.21,688.94 h -683.4 C 7546.58,4384.6 7496.72,3641.57 7406.91,2398.62 7355.14,1681.97 7275.12,578.98 7291.11,0 h 1351.17 c 23.97,783.672 -110.31,1662.94 -249.33,2575.85 z" /></clipPath><linearGradient
       id="linearGradient278"
       spreadMethod="pad"
       gradientTransform="matrix(1336.5,-4987.88,-4987.88,-1336.5,7102.1,4933.3)"
       gradientUnits="userSpaceOnUse"
       y2="0"
       x2="1"
       y1="0"
       x1="0"><stop
         id="stop274"
         offset="0"
         style="stop-opacity:1;stop-color:#3a9fd7" /><stop
         id="stop276"
         offset="1"
         style="stop-opacity:1;stop-color:#5fb4bd" /></linearGradient><clipPath
       id="clipPath288"
       clipPathUnits="userSpaceOnUse"><path
         id="path286"
         d="M 5895.05,5045.66 6186.33,2522.8 5895.05,0 h 930.5 l 0.93,5045.66 z" /></clipPath><linearGradient
       id="linearGradient294"
       spreadMethod="pad"
       gradientTransform="matrix(2e-7,-5045.66,-5045.66,-2e-7,6360.77,5045.66)"
       gradientUnits="userSpaceOnUse"
       y2="0"
       x2="1"
       y1="0"
       x1="0"><stop
         id="stop290"
         offset="0"
         style="stop-opacity:1;stop-color:#254a9f" /><stop
         id="stop292"
         offset="1"
         style="stop-opacity:1;stop-color:#427abf" /></linearGradient><clipPath
       id="clipPath304"
       clipPathUnits="userSpaceOnUse"><path
         id="path302"
         d="m 7406.91,2398.62 c 89.81,1242.95 139.67,1985.98 114.53,2647.04 H 6826.48 L 6825.55,0 h 465.56 c -15.99,578.98 64.03,1681.97 115.8,2398.62 z" /></clipPath><linearGradient
       id="linearGradient310"
       spreadMethod="pad"
       gradientTransform="matrix(2e-7,5045.66,5045.66,-2e-7,7176.74,6.1e-5)"
       gradientUnits="userSpaceOnUse"
       y2="0"
       x2="1"
       y1="0"
       x1="0"><stop
         id="stop306"
         offset="0"
         style="stop-opacity:1;stop-color:#4e9bca" /><stop
         id="stop308"
         offset="1"
         style="stop-opacity:1;stop-color:#3263ab" /></linearGradient></defs><g
     transform="matrix(1.3333333,0,0,-1.3333333,0,672.76)"
     id="g10"><g
       transform="scale(0.1)"
       id="g12"><path
         id="path66"
         style="fill:url(#linearGradient64);fill-opacity:1;fill-rule:nonzero;stroke:none"
         d="M 11905.5,0 H 0 V 5045.66 H 11905.5 V 0" /><g
         id="g68"><g
           clip-path="url(#clipPath74)"
           id="g70"><path
             id="path92"
             style="fill:url(#linearGradient90);fill-opacity:1;fill-rule:nonzero;stroke:none"
             d="M 1925.87,0 H 3393.76 L 2882.68,2522.8 Z" /></g></g><g
         id="g94"><g
           clip-path="url(#clipPath100)"
           id="g96"><path
             id="path110"
             style="fill:url(#linearGradient108);fill-opacity:1;fill-rule:nonzero;stroke:none"
             d="M 5895.05,5045.66 H 5151.49 L 4747.74,2522.8 5115.18,0 h 779.87 v 5045.66" /></g></g><g
         id="g112"><g
           clip-path="url(#clipPath118)"
           id="g114"><path
             id="path126"
             style="fill:url(#linearGradient124);fill-opacity:1;fill-rule:nonzero;stroke:none"
             d="m 3448.2,5045.66 h -0.54 L 2882.68,2522.8 3393.76,0 4179.82,2522.8 3448.2,5045.66" /></g></g><g
         id="g128"><g
           clip-path="url(#clipPath134)"
           id="g130"><path
             id="path142"
             style="fill:url(#linearGradient140);fill-opacity:1;fill-rule:nonzero;stroke:none"
             d="M 5151.49,5045.66 H 3448.2 L 4179.82,2522.8 3393.76,0 h 1721.42 l -367.44,2522.8 403.75,2522.86" /></g></g><path
         id="path144"
         style="fill:#ae1c22;fill-opacity:1;fill-rule:nonzero;stroke:none"
         d="M 1911.23,5045.66 H 915.98 V 3484.05 L 1479.8,2522.8 915.98,1561.56 V 0 h 1009.89 l -359.47,2522.8 344.83,2522.86" /><g
         id="g146"><g
           clip-path="url(#clipPath152)"
           id="g148"><path
             id="path170"
             style="fill:url(#linearGradient168);fill-opacity:1;fill-rule:nonzero;stroke:none"
             d="M 3447.66,5045.66 H 1911.23 L 2882.68,2522.8 Z" /></g></g><path
         id="path172"
         style="fill:#8e181d;fill-opacity:1;fill-rule:nonzero;stroke:none"
         d="M 915.98,5045.66 H 0 L 915.98,3484.05 Z" /><path
         id="path174"
         style="fill:#ae1f3d;fill-opacity:1;fill-rule:nonzero;stroke:none"
         d="M 1479.8,2522.8 915.98,3484.05 V 1561.56 Z" /><path
         id="path176"
         style="fill:#8e181d;fill-opacity:1;fill-rule:nonzero;stroke:none"
         d="M 0,0 H 915.98 V 1561.56 Z" /><path
         id="path178"
         style="fill:#8d1b33;fill-opacity:1;fill-rule:nonzero;stroke:none"
         d="M 915.98,3484.05 0,5045.66 V 0 l 915.98,1561.56 v 1922.49" /><path
         id="path180"
         style="fill:#db1f26;fill-opacity:1;fill-rule:nonzero;stroke:none"
         d="M 1911.23,5045.66 1566.4,2522.8 1925.87,0 2882.68,2522.8 1911.23,5045.66" /><g
         id="g182"><g
           clip-path="url(#clipPath188)"
           id="g184"><path
             id="path196"
             style="fill:url(#linearGradient194);fill-opacity:1;fill-rule:nonzero;stroke:none"
             d="m 10563.4,771.641 c 28.8,417.819 165.2,899.539 309.4,1409.599 23.1,81.56 46.6,164.47 69.9,248.59 -23.4,90.37 -46.8,179.54 -69.9,267.26 -144.3,548.25 -280.6,1066 -309.4,1515.11 -22.3,348.65 23.3,609.46 147,833.46 H 9954.55 C 9830.84,4744.81 9785.18,4566.8 9807.56,4218.15 9836.33,3769.08 9972.68,3251.3 10116.9,2703.08 10330.7,1890.99 10578,954.789 10498.6,0 h 212.2 c -124,208.512 -169.7,446.93 -147.4,771.641" /></g></g><g
         id="g198"><g
           clip-path="url(#clipPath204)"
           id="g200"><path
             id="path212"
             style="fill:url(#linearGradient210);fill-opacity:1;fill-rule:nonzero;stroke:none"
             d="m 10116.9,2703.08 c -144.22,548.22 -280.57,1066 -309.34,1515.07 -22.38,348.65 23.28,526.66 146.99,827.51 H 9370.9 C 9464.16,4157.55 9308.69,3288.41 9146.91,2299.63 9052.48,1722.7 8954.8,1126.19 8929.51,642.652 8911.29,294.941 8935.53,103.18 8958.91,0 h 1539.69 c 79.4,954.789 -167.9,1890.99 -381.7,2703.08" /></g></g><path
         id="path214"
         style="fill:#32a740;fill-opacity:1;fill-rule:nonzero;stroke:none"
         d="m 10942.7,2429.83 c -23.3,-84.12 -46.8,-167.03 -69.9,-248.59 -144.2,-510.06 -280.6,-991.78 -309.4,-1409.599 C 10541.1,446.93 10586.8,208.512 10710.8,0 h 543.4 c 70.9,851.711 -118.1,1683.68 -311.5,2429.83" /><g
         id="g216"><g
           clip-path="url(#clipPath222)"
           id="g218"><path
             id="path230"
             style="fill:url(#linearGradient228);fill-opacity:1;fill-rule:nonzero;stroke:none"
             d="m 11204.9,5045.66 c 175.9,-911.13 -40.3,-1818.08 -262.2,-2615.83 C 11136.1,1683.68 11325.1,851.711 11254.2,0 h 651.3 v 5045.66 h -700.6" /></g></g><g
         id="g232"><g
           clip-path="url(#clipPath238)"
           id="g234"><path
             id="path246"
             style="fill:url(#linearGradient244);fill-opacity:1;fill-rule:nonzero;stroke:none"
             d="m 8929.51,642.652 c 25.29,483.538 122.97,1080.048 217.4,1656.978 161.78,988.78 317.25,1857.92 223.99,2746.03 H 8204.84 c -23.32,-187.89 -47.44,-315.86 -29.21,-688.94 25.31,-519.69 122.9,-1160.81 217.32,-1780.87 C 8531.97,1662.94 8666.25,783.672 8642.28,0 h 316.63 c -23.38,103.18 -47.62,294.941 -29.4,642.652" /></g></g><path
         id="path248"
         style="fill:#2a3e96;fill-opacity:1;fill-rule:nonzero;stroke:none"
         d="M 5895.05,5045.66 V 0 l 291.28,2522.8 z" /><g
         id="g250"><g
           clip-path="url(#clipPath256)"
           id="g252"><path
             id="path264"
             style="fill:url(#linearGradient262);fill-opacity:1;fill-rule:nonzero;stroke:none"
             d="m 10563.4,4212.2 c 28.8,-449.11 165.1,-966.86 309.4,-1515.11 23.1,-87.72 46.5,-176.89 69.9,-267.26 221.9,797.75 438.1,1704.7 262.2,2615.83 h -494.5 c -123.7,-224 -169.3,-484.81 -147,-833.46" /></g></g><g
         id="g266"><g
           clip-path="url(#clipPath272)"
           id="g268"><path
             id="path280"
             style="fill:url(#linearGradient278);fill-opacity:1;fill-rule:nonzero;stroke:none"
             d="m 8392.95,2575.85 c -94.42,620.06 -192.01,1261.18 -217.32,1780.87 -18.23,373.08 5.89,501.05 29.21,688.94 h -683.4 C 7546.58,4384.6 7496.72,3641.57 7406.91,2398.62 7355.14,1681.97 7275.12,578.98 7291.11,0 h 1351.17 c 23.97,783.672 -110.31,1662.94 -249.33,2575.85" /></g></g><g
         id="g282"><g
           clip-path="url(#clipPath288)"
           id="g284"><path
             id="path296"
             style="fill:url(#linearGradient294);fill-opacity:1;fill-rule:nonzero;stroke:none"
             d="M 5895.05,5045.66 6186.33,2522.8 5895.05,0 h 930.5 l 0.93,5045.66 h -931.43" /></g></g><g
         id="g298"><g
           clip-path="url(#clipPath304)"
           id="g300"><path
             id="path312"
             style="fill:url(#linearGradient310);fill-opacity:1;fill-rule:nonzero;stroke:none"
             d="m 7406.91,2398.62 c 89.81,1242.95 139.67,1985.98 114.53,2647.04 H 6826.48 L 6825.55,0 h 465.56 c -15.99,578.98 64.03,1681.97 115.8,2398.62" /></g></g></g></g></svg>