<?xml version="1.0" encoding="UTF-8"?>
<svg xmlns="http://www.w3.org/2000/svg" viewBox="0 0 192 192"><path d="M56 76h64v8H56zM56 56h64v8H56zM56 96h32v8H56z" fill="rgba(255,255,255,1)"/><path d="M144 168H48V24h96v35.2c2.5-1.6 5.2-2.8 8-3.5V16H40v160h112v-50.4l-8 8V168z" fill="rgba(255,255,255,1)"/><path d="M170.8 69.2c-6.9-6.9-18-6.9-24.9 0l-55.2 55.2-8.3 33.1 33.1-8.3L168 96.9l2.8-2.8c6.9-6.9 6.9-18.1 0-24.9zm-70.7 57.2L142.4 84l13.5 13.6-42.3 42.3-13.5-13.5zm-3.5 7.8l9.2 9.2-12.3 3.1 3.1-12.3zm69-46.3l-4 4-13.5-13.6 4-4c3.8-3.3 9.5-3.1 13.1.5s3.7 9.3.4 13.1z" fill="rgba(255,255,255,1)"/></svg>
